<?xml version="1.0" encoding="UTF-8" standalone="no"?>
<!-- Created with Inkscape (http://www.inkscape.org/) -->

<svg
   width="210mm"
   height="297mm"
   viewBox="0 0 210 297"
   version="1.1"
   id="svg5"
   xmlns="http://www.w3.org/2000/svg"
   xmlns:svg="http://www.w3.org/2000/svg">
  <defs
     id="defs2" />
  <g
     id="layer1">
    <path
       style="fill:#000000;stroke-width:1.0433"
       d="m 2.7551631,24.634967 c 0,0 -2.82662399,-4.194571 -1.111766,-7.65649 1.291371,-2.606993 2.203529,-3.309505 0.438459,-4.379026 -1.58472099,-0.96024 -0.937378,-1.871524 0.995471,-0.882059 1.776177,0.909261 2.851611,-0.918051 1.319429,-1.9706888 -1.756175,-1.206525 -1.167656,-1.954087 0.827514,-1.066081 2.060563,0.917111 3.836421,-4.371702 0.372437,-5.329804 -0.900123,-0.2489648 -0.947637,-3.26056908 1.312487,-2.2086872 0,0 4.0371089,2.4988672 2.675269,5.3823072 -0.997991,2.113057 -1.481748,3.5255138 0.224382,4.3644548 1.8184239,0.894159 1.2269229,1.639102 -0.906039,0.986015 -2.624886,-0.803707 -3.4834949,1.287352 -1.2302659,2.172794 1.808542,0.710695 1.1579689,1.967986 -0.6740451,0.967767 -1.742408,-0.951296 -3.0981422,-0.200683 -3.6343412,1.860316 -1.401324,5.386293 3.293756,10.538994 6.8985791,7.851829 1.021381,-0.761374 5.462255,-4.846023 9.083898,-9.36241 3.67322,-4.580707 7.846022,-7.6482011 9.084311,-8.2662888 2.474278,-1.2350277 6.769815,0.612172 6.769815,2.683842 0,1.9773918 -1.05475,1.9025798 -2.638698,-0.187158 C 30.323396,6.6420822 26.923796,9.2640252 21.065211,16.366794 14.927667,23.807766 10.656709,27.896698 7.0988821,27.326585 6.2516391,27.190821 4.4537255,26.723899 2.7551631,24.634967 Z"
       id="path301" />
  </g>
</svg>
