<?xml version="1.0" encoding="UTF-8" standalone="no"?>
<!-- Created with Inkscape (http://www.inkscape.org/) -->

<svg
   width="210mm"
   height="297mm"
   viewBox="0 0 210 297"
   version="1.1"
   id="svg8420"
   xmlns="http://www.w3.org/2000/svg"
   xmlns:svg="http://www.w3.org/2000/svg">
  <defs
     id="defs8417" />
  <g
     id="layer1">
    <path
       style="fill:#000000;stroke-width:0.714562"
       d="M 1.8886748,19.32593 C 0.04196171,17.351909 -0.10593429,16.507287 0.23881471,13.97377 0.93095776,8.8872875 7.1163188,3.6128143 11.985838,3.5840716 15.873335,3.5611256 22.67952,11.13768 22.67952,15.711393 c 0,2.381105 -3.231955,5.474698 -5.604628,5.474698 -0.976224,0 -2.503504,-0.581504 -3.393955,-1.292232 -1.566117,-1.25002 -1.537293,-1.580901 -4.1148342,-0.529167 -4.012039,1.637064 -4.914145,2.915016 -7.677428,-0.03876 z m 7.684727,-1.399046 c 2.0882782,-1.356934 2.2878152,-2.272892 4.3025992,0.106437 2.669724,3.15277 5.149078,1.019611 6.286227,-0.100618 C 21.844691,16.275274 20.069718,11.406957 16.548311,7.2731203 13.319494,3.4827551 7.8616368,5.2435164 4.2281048,9.4346455 -0.55710329,14.954184 3.8150578,21.668577 9.5734018,17.926884 Z"
       id="path8456" />
    <circle
       style="font-variation-settings:normal;opacity:1;vector-effect:none;fill:#000000;fill-opacity:1;fill-rule:evenodd;stroke-width:0.304348;stroke-linecap:butt;stroke-linejoin:miter;stroke-miterlimit:4;stroke-dasharray:none;stroke-dashoffset:0;stroke-opacity:1;-inkscape-stroke:none;stop-color:#000000;stop-opacity:1"
       id="path303"
       cx="12.1125"
       cy="1.1511904"
       r="1" />
  </g>
</svg>
