<?xml version="1.0" encoding="UTF-8" standalone="no"?>
<!-- Created with Inkscape (http://www.inkscape.org/) -->

<svg
   width="210mm"
   height="297mm"
   viewBox="0 0 210 297"
   version="1.1"
   id="svg8420"
   xmlns="http://www.w3.org/2000/svg"
   xmlns:svg="http://www.w3.org/2000/svg">
  <defs
     id="defs8417" />
  <g
     id="layer1">
    <path
       style="fill:#000000;stroke-width:0.714562"
       d="M 1.96427,15.99974 C 0.11755695,14.025719 -0.03033905,13.181097 0.31440995,10.64758 1.006553,5.561097 7.191914,0.28662385 12.061433,0.25788115 15.94893,0.23493515 22.755115,7.81149 22.755115,12.385203 c 0,2.381105 -3.231955,5.474698 -5.604628,5.474698 -0.976224,0 -2.503504,-0.581504 -3.393955,-1.292232 -1.566117,-1.25002 -1.537293,-1.580901 -4.114834,-0.529167 -4.012039,1.637064 -4.914145,2.915016 -7.677428,-0.03876 z m 7.684727,-1.399046 c 2.088278,-1.356934 2.287815,-2.272892 4.302599,0.106437 2.669724,3.15277 5.149078,1.019611 6.286227,-0.100618 C 21.920286,12.949084 20.145313,8.080767 16.623906,3.9469298 13.395089,0.15656465 7.937232,1.9173259 4.3037,6.108455 -0.48150805,11.627994 3.890653,18.342387 9.648997,14.600694 Z"
       id="path8456" />
    <circle
       style="fill:#000000;fill-rule:evenodd;stroke-width:0.291484"
       id="path160"
       cx="11.659792"
       cy="18.409441"
       r="1" />
  </g>
</svg>
