<?xml version="1.0" encoding="UTF-8" standalone="no"?>
<!-- Created with Inkscape (http://www.inkscape.org/) -->

<svg
   width="210mm"
   height="297mm"
   viewBox="0 0 210 297"
   version="1.1"
   id="svg11024"
   xmlns="http://www.w3.org/2000/svg"
   xmlns:svg="http://www.w3.org/2000/svg">
  <defs
     id="defs11021" />
  <g
     id="layer1">
    <path
       style="fill:#000000;stroke-width:0.666837"
       d="m 0.94689218,14.824483 c -1.169664,-1.819517 -0.588777,-2.307335 0.40731702,-5.5100868 0.632588,-2.033969 0.292715,-2.805774 -0.65735302,-3.7736317 -0.631172,-0.642994 -0.96793,-1.754454 -0.29207,-2.7012104 1.02818602,-1.4403008 -0.543263,0.082612 0.88845102,-1.0210961 0.766242,-0.5906967 2.473844,0.2522476 2.762952,1.2719053 0.207086,0.7303724 -0.181926,1.857117 0.151866,1.857117 0.333791,0 4.407209,-1.3845612 7.9433098,-2.6148313 7.939682,-2.76235146 10.75389,-2.81568966 12.470389,-0.6191808 1.516499,1.94058 0.655124,2.8984559 -1.457778,4.319371 -1.094665,0.736156 0.453413,-1.0775982 0.453413,-2.7060673 0,-1.060384 -1.313859,-1.1133042 -1.674236,-1.3187248 -0.360377,-0.2054213 -5.474285,-0.073954 -9.483455,1.6713241 l -8.9934178,3.801684 -0.971568,3.5920028 c -0.981535,3.628852 0.918335,4.576634 5.352193,2.760844 7.6450178,-3.13085 11.9366218,-5.5597308 13.6411658,-4.8434298 1.957661,0.822669 1.467576,2.3959818 0.07461,3.4893518 -1.484579,1.165278 -0.58542,0.03783 -0.166215,-1.802719 0.256531,-1.1263158 -3.053181,0.351114 -9.735362,3.021093 -6.6984948,2.676498 -9.0689568,3.685624 -10.2950158,1.778381 z M 2.8404212,3.6786726 c -0.219821,-0.528337 -0.513845,-0.6567199 -0.901644,-0.6567199 -0.406409,0 -0.868092,1.3140629 -0.369858,1.8677556 0.475418,0.5283368 0.972561,0.6129156 1.104763,0.6129156 0.132201,0 0.386558,-1.2956145 0.166739,-1.8239513 z"
       id="path11060" />
    <circle
       style="font-variation-settings:normal;opacity:1;vector-effect:none;fill:#000000;fill-opacity:1;fill-rule:evenodd;stroke-width:0.264583;stroke-linecap:butt;stroke-linejoin:miter;stroke-miterlimit:4;stroke-dasharray:none;stroke-dashoffset:0;stroke-opacity:1;-inkscape-stroke:none;stop-color:#000000;stop-opacity:1"
       id="path2106"
       cx="13.20599"
       cy="17.491636"
       r="1" />
  </g>
</svg>
