<?xml version="1.0" encoding="UTF-8" standalone="no"?>
<!-- Created with Inkscape (http://www.inkscape.org/) -->

<svg
   width="210mm"
   height="297mm"
   viewBox="0 0 210 297"
   version="1.1"
   id="svg5"
   xmlns="http://www.w3.org/2000/svg"
   xmlns:svg="http://www.w3.org/2000/svg">
  <defs
     id="defs2" />
  <g
     id="layer1">
    <path
       style="fill:#000000;stroke-width:0.927351"
       d="m 1.8173489,21.583598 c -0.688289,-0.428564 -0.428978,-0.556916 -0.2553,-1.763533 0.251311,-1.74598 0.662029,0.142413 2.895962,0.114387 1.543835,-0.01937 3.765472,-1.519109 5.214155,-2.131635 3.5162021,-1.486704 4.9854791,-2.008172 5.9707201,-0.278766 0.740047,1.299014 0.843099,1.589676 3.847198,0.182445 3.003573,-1.406984 3.666547,-1.815914 5.921171,-0.10279 2.57201,1.954282 1.694613,1.719699 2.57201,1.954282 2.165459,0.578961 6.276304,-2.824777 5.569976,-1.676372 -0.982738,1.597814 -3.477448,2.973484 -6.096507,2.973484 -1.112306,0 -2.551837,-1.077934 -3.47614,-1.563862 -1.179163,-0.619913 -4.39989,0.340022 -5.639466,1.261875 -2.396634,1.782341 -3.351076,1.100334 -4.412618,-0.763006 -0.794127,-1.393943 -2.681497,-0.848531 -5.2617611,0.610749 -3.723103,2.105617 -4.793568,2.462808 -6.8494,1.182742 z M 4.1773139,11.078176 C 3.5597809,10.471559 3.4091019,9.1827338 3.5836929,8.2501231 3.9616689,6.2310876 7.8515319,2.2686958 9.6976009,1.3784944 11.265269,0.62254196 8.6235379,3.7075603 7.0481419,5.659726 c 0,0 -1.420301,2.4240338 -1.32789,2.8579188 0.680357,3.1944022 6.2369771,1.119619 11.9746681,-2.0323585 8.419216,-4.6250636 16.456339,-5.69026134 14.998256,-0.5122632 -0.604762,2.147654 -3.148374,4.2306439 -6.207955,5.5157629 -1.454481,0.610927 1.962484,-2.3823662 3.09608,-4.1730041 1.14803,-1.8134381 0.933,-2.1951815 -0.859513,-2.2346912 C 27.586943,5.0560767 23.33309,5.7221841 17.321699,8.5943948 9.0639779,12.539891 6.1039329,12.970737 4.1773139,11.078176 Z"
       id="path171" />
  </g>
</svg>
