<?xml version="1.0" encoding="UTF-8" standalone="no"?>
<!-- Created with Inkscape (http://www.inkscape.org/) -->

<svg
   width="210mm"
   height="297mm"
   viewBox="0 0 210 297"
   version="1.1"
   id="svg16250"
   xmlns="http://www.w3.org/2000/svg"
   xmlns:svg="http://www.w3.org/2000/svg">
  <defs
     id="defs16247" />
  <g
     id="layer1">
    <path
       style="fill:#000000;stroke-width:0.777359"
       d="m 0.4679216,21.049342 c -0.722458,-1.981868 -0.646646,-1.118943 1.607383,-0.148528 2.230607,0.960332 3.681489,1.265699 5.642045,0.233451 3.0739864,-1.618477 4.9561024,-7.483716 0.81273,-10.499451 -0.728135,-0.529969 -0.890755,0.463155 0.222599,-1.4135231 1.147272,-1.9338431 0.01887,-6.5085006 -3.317467,-4.6823615 -2.283964,1.250123 -2.129119,1.0928868 -0.375882,-0.9464685 1.44825,-1.6845933 4.394612,-0.8869773 5.2059464,0.4949407 0.313862,0.5345892 0.94015,0.5345892 1.889055,0 1.939015,-1.0923924 5.012141,-2.4061194 6.453035,-1.6973419 2.672654,1.3146816 1.916235,3.0821859 0.786216,9.5380793 -0.488341,2.789932 -1.803601,8.313561 -1.579901,8.655852 0.993689,1.520483 3.390737,0.166691 4.353555,-0.785475 0.962819,-0.952168 1.814646,-1.998996 2.092599,-2.443895 0,0 0.436943,1.945958 -2.16682,3.793063 -5.692994,4.038598 -7.466743,1.404906 -4.503989,-8.272595 1.1043,-3.6070731 1.203344,-8.205332 0.989971,-8.4568068 -1.561461,-1.8402901 -4.849302,0.4506427 -5.971594,1.1233734 -1.037959,0.622179 -1.561269,1.4183749 -1.945521,2.3998421 -0.44655,1.1405892 -0.314084,2.4479263 1.207578,4.5631513 0.652583,0.907141 0.597804,1.581612 0.666566,1.881735 0.0535,0.233486 0.141824,0.316977 0.09925,0.3085 -0.04257,-0.0085 0.112409,0.88689 0.112409,0.88689 0.03221,0.229248 -0.02094,-0.338067 -0.03393,0.552872 -0.07874,5.402551 -6.9483924,9.269302 -12.2458334,4.914696 z"
       id="path16286" />
    <circle
       style="fill:#000000;stroke-width:0.270559"
       id="path222"
       cx="12.133809"
       cy="1.0032607"
       r="1" />
  </g>
</svg>
