<?xml version="1.0" encoding="UTF-8" standalone="no"?>
<!-- Created with Inkscape (http://www.inkscape.org/) -->

<svg
   width="210mm"
   height="297mm"
   viewBox="0 0 210 297"
   version="1.1"
   id="svg25261"
   xmlns="http://www.w3.org/2000/svg"
   xmlns:svg="http://www.w3.org/2000/svg">
  <defs
     id="defs25258" />
  <g
     id="layer1">
    <path
       style="fill:#000000;stroke-width:0.759801"
       d="M 2.109507,10.31209 C -0.22035195,9.1169526 -0.64789795,5.935487 1.274996,4.130931 2.714924,2.779618 2.70255,3.82746 2.050828,6.446842 1.511677,8.6137809 2.627496,8.8186689 3.679652,9.0399526 6.039086,9.5361763 8.080082,8.1509802 13.256868,4.234169 19.260431,-0.30819201 21.937676,-0.85006628 23.910123,0.99623863 25.687913,2.660337 25.702563,4.563068 23.950223,6.20335 22.396251,7.657939 20.807413,7.9732632 22.178679,6.554932 24.292525,4.368536 22.228729,0.73833563 19.39985,1.667003 18.571674,1.938876 15.80995,3.748224 13.262683,5.687774 6.98771,10.46569 4.4556,11.515551 2.109511,10.31209 Z"
       id="path25277" />
    <rect
       style="fill:#000000;stroke-width:0.264583"
       id="rect51"
       width="1.7"
       height="4.6999998"
       x="11.481783"
       y="10.729692" />
    <rect
       style="fill:#000000;stroke-width:0.264583"
       id="rect53"
       width="4.6999998"
       height="1.7"
       x="9.9698753"
       y="12.241597" />
  </g>
</svg>
