<?xml version="1.0" encoding="UTF-8" standalone="no"?>
<!-- Created with Inkscape (http://www.inkscape.org/) -->

<svg
   width="210mm"
   height="297mm"
   viewBox="0 0 210 297"
   version="1.1"
   id="svg25261"
   xmlns="http://www.w3.org/2000/svg"
   xmlns:svg="http://www.w3.org/2000/svg">
  <defs
     id="defs25258" />
  <g
     id="layer1">
    <path
       style="fill:#000000;stroke-width:0.759801"
       d="M 2.109507,10.31209 C -0.22035195,9.116953 -0.64789795,5.935487 1.274996,4.130931 2.714924,2.779618 2.70255,3.82746 2.050828,6.446842 1.511677,8.613781 2.627496,8.818669 3.679652,9.039953 6.039086,9.5361763 8.080082,8.15098 13.256868,4.234169 19.260431,-0.30819202 21.937676,-0.85006632 23.910123,0.99623863 25.687913,2.660337 25.702563,4.563068 23.950223,6.20335 22.396251,7.657939 20.807413,7.973263 22.178679,6.554932 24.292525,4.368536 22.228729,0.73833563 19.39985,1.667003 18.571674,1.938876 15.80995,3.748224 13.262683,5.687774 6.98771,10.46569 4.4556,11.515551 2.109511,10.31209 Z"
       id="path25277" />
  </g>
</svg>
