<?xml version="1.0" encoding="UTF-8" standalone="no"?>
<!-- Created with Inkscape (http://www.inkscape.org/) -->

<svg
   width="210mm"
   height="297mm"
   viewBox="0 0 210 297"
   version="1.1"
   id="svg25261"
   xmlns="http://www.w3.org/2000/svg"
   xmlns:svg="http://www.w3.org/2000/svg">
  <defs
     id="defs25258" />
  <g
     id="layer1">
    <path
       style="fill:#000000;stroke-width:0.759801"
       d="M 2.109507,12.428758 C -0.22035195,11.23362 -0.64789795,8.0521538 1.274996,6.2475978 2.714924,4.8962848 2.70255,5.9441268 2.050828,8.5635088 1.511677,10.730448 2.627496,10.935336 3.679652,11.15662 c 2.359434,0.496224 4.40043,-0.888973 9.577216,-4.8057842 6.003563,-4.5423611 8.680808,-5.0842354 10.653255,-3.2379304 1.77779,1.6640984 1.79244,3.5668294 0.0401,5.2071114 -1.553972,1.454589 -3.14281,1.7699132 -1.771544,0.351582 2.113846,-2.186396 0.05005,-5.8165964 -2.778829,-4.887929 -0.828176,0.271873 -3.5899,2.081221 -6.137167,4.020771 C 6.98771,12.582358 4.4556,13.632219 2.109511,12.428758 Z"
       id="path25277" />
    <circle
       style="fill:#000000;stroke-width:0.271783"
       id="path573"
       cx="12.722876"
       cy="1.054095"
       r="1" />
  </g>
</svg>
