<?xml version="1.0" encoding="UTF-8" standalone="no"?>
<!-- Created with Inkscape (http://www.inkscape.org/) -->

<svg
   width="210mm"
   height="297mm"
   viewBox="0 0 210 297"
   version="1.1"
   id="svg26395"
   xmlns="http://www.w3.org/2000/svg"
   xmlns:svg="http://www.w3.org/2000/svg">
  <defs
     id="defs26392" />
  <g
     id="layer1">
    <path
       style="fill:#000000;stroke-width:0.908709"
       d="m 1.1125162,21.865197 c -1.189655,-1.10867 -0.318757,-3.213992 1.291753,-5.390402 1.898758,-2.565944 1.446553,0.713559 0.79596,2.395245 -0.685339,1.771502 1.701385,0.895779 5.424352,-0.313704 1.6304228,-0.529677 4.9639208,-1.733823 4.9639208,-2.350032 0,-0.61621 0.523137,-4.327295 0.719427,-5.851028 l 0.386174,-2.9977327 -6.1878298,1.927512 c -1.466361,0.456772 -8.362757,0.7894627 -8.362757,-1.806157 0,-1.709295 3.999894,-5.4826379 5.602358,-6.0824927 1.514043,-0.5667559 -1.659929,2.4310329 -2.384966,4.3852777 -1.070706,2.885954 2.712943,2.491128 11.8207968,-0.896906 6.233988,-2.3189817 10.171546,-4.5389197 12.441124,-4.6687067 2.803619,-0.1603263 2.016347,-0.3992177 3.351559,1.6033245 1.440057,2.1597888 -0.373463,4.9023852 -2.783237,5.3599262 -2.36574,0.44918 -2.972282,0.749307 -4.485484,0.01783 -0.877959,-0.424406 3.32164,-1.643105 4.122905,-2.389824 2.137583,-1.9920686 -2.809672,-1.6106696 -6.284379,-0.257676 -4.227451,1.6461 -4.169714,1.001285 -4.975722,5.5457427 -0.670556,3.780754 -0.593229,6.199268 1.584267,5.113239 4.545772,-2.267211 7.795725,-2.254335 10.319264,-1.47712 2.342816,0.721555 1.600485,2.581366 0.72351,3.832026 -1.829981,2.609746 -4.711997,0.309171 -2.949899,-0.300467 0.401335,-0.138851 0.699009,-0.503643 0.754909,-0.914769 0.0559,-0.411127 -0.129977,-0.868588 -0.695739,-1.192778 -1.241562,-0.711433 -6.524338,1.308377 -11.703327,3.432486 -9.1413728,3.749238 -12.1881228,4.489458 -13.4889418,3.277191 z"
       id="path27252" />
  </g>
</svg>
