<?xml version="1.0" encoding="UTF-8" standalone="no"?>
<!-- Created with Inkscape (http://www.inkscape.org/) -->

<svg
   width="210mm"
   height="297mm"
   viewBox="0 0 210 297"
   version="1.1"
   id="svg31416"
   xmlns="http://www.w3.org/2000/svg"
   xmlns:svg="http://www.w3.org/2000/svg">
  <defs
     id="defs31413" />
  <g
     id="layer1">
    <path
       style="fill:#000000;stroke-width:0.772504"
       d="m 12.196456,16.060524 c -0.901446,-0.835361 1.491143,-1.814486 1.353388,-2.860196 -0.164414,-1.248085 -3.015105,-1.51134 -2.444261,-2.878943 1.488621,-3.5663734 -0.201249,0.670829 0.817792,-1.7551359 0.292049,-0.6952625 -1.228148,-2.1933185 -3.4591068,-1.3083795 -5.953991,2.3617309 -11.066906,-0.856736 -6.658762,-3.4674882 3.34095,-1.9786995 1.364868,0.1084384 0.87537,1.6677682 -0.454159,1.446757 3.580561,1.127852 10.4945928,-1.7166156 7.930309,-3.26256862 12.679332,-5.1836326 13.062611,-2.0214022 0.200144,1.6512948 -0.17079,2.2217026 -1.835513,2.8225708 -2.698159,0.973878 0.05984,-0.5517191 -0.235718,-2.2194303 -0.238108,-1.34354905 -3.113528,0.1807792 -5.87577,1.2341681 -2.615838,0.9975592 -5.082745,1.9725942 -3.637277,3.2200022 1.182388,1.020375 0.01592,1.8403555 -0.423136,2.0979642 -0.439057,0.257608 -0.81253,0.8118477 -0.58397,1.6415942 0.228561,0.829747 2.535109,1.731721 2.010039,2.332346 -0.52507,0.600627 -1.785307,2.672336 -1.488682,3.127977 0.871843,1.339218 -0.389744,5.042967 -1.766688,5.042967 -0.933829,0 1.049832,-3.797012 -0.204909,-4.959767 z"
       id="path31452" />
    <rect
       style="fill:#000000;stroke-width:0.264583"
       id="rect51"
       width="1.7"
       height="4.6999998"
       x="12.343691"
       y="22.716507" />
    <rect
       style="fill:#000000;stroke-width:0.264583"
       id="rect53"
       width="4.6999998"
       height="1.7"
       x="10.831785"
       y="24.228413" />
  </g>
</svg>
