<?xml version="1.0" encoding="UTF-8" standalone="no"?>
<!-- Created with Inkscape (http://www.inkscape.org/) -->

<svg
   width="210mm"
   height="297mm"
   viewBox="0 0 210 297"
   version="1.1"
   id="svg31416"
   xmlns="http://www.w3.org/2000/svg"
   xmlns:svg="http://www.w3.org/2000/svg">
  <defs
     id="defs31413" />
  <g
     id="layer1">
    <path
       style="fill:#000000;stroke-width:0.772504"
       d="M 12.196456,17.782191 C 11.29501,16.94683 13.687599,15.967705 13.549844,14.921995 13.38543,13.67391 10.534739,13.410655 11.105583,12.043052 12.594204,8.4766775 10.904334,12.713881 11.923375,10.287915 12.215424,9.5926525 10.695227,8.0945965 8.4642682,8.9795355 2.5102772,11.341267 -2.6026378,8.1227995 1.8055062,5.5120473 c 3.34095,-1.9786995 1.364868,0.1084384 0.87537,1.6677682 -0.454159,1.446757 3.580561,1.127852 10.4945928,-1.7166156 7.930309,-3.2625687 12.679332,-5.18363269 13.062611,-2.0214022 0.200144,1.6512948 -0.17079,2.2217026 -1.835513,2.8225708 -2.698159,0.973878 0.05984,-0.5517191 -0.235718,-2.2194303 -0.238108,-1.3435491 -3.113528,0.1807792 -5.87577,1.2341681 -2.615838,0.9975592 -5.082745,1.9725942 -3.637277,3.2200022 1.182388,1.020375 0.01592,1.8403555 -0.423136,2.0979645 -0.439057,0.257608 -0.81253,0.811848 -0.58397,1.641595 0.228561,0.829747 2.535109,1.731721 2.010039,2.332346 -0.52507,0.600627 -1.785307,2.672336 -1.488682,3.127977 0.871843,1.339218 -0.389744,5.042967 -1.766688,5.042967 -0.933829,0 1.049832,-3.797012 -0.204909,-4.959767 z"
       id="path31452" />
    <circle
       style="fill:#000000;stroke-width:0.225378"
       id="path1193"
       cx="13.268667"
       cy="1.0315228"
       r="1" />
  </g>
</svg>
