<?xml version="1.0" encoding="UTF-8" standalone="no"?>
<!-- Created with Inkscape (http://www.inkscape.org/) -->

<svg
   width="210mm"
   height="297mm"
   viewBox="0 0 210 297"
   version="1.1"
   id="svg34026"
   xmlns="http://www.w3.org/2000/svg"
   xmlns:svg="http://www.w3.org/2000/svg">
  <defs
     id="defs34023" />
  <g
     id="layer1">
    <path
       style="fill:#000000;stroke-width:0.690976"
       d="M 2.9949853,18.850293 C 1.0104213,17.441918 0.49196527,14.783682 1.6528193,11.968725 2.5540373,9.7833582 3.2585643,9.4226372 1.8994463,8.0455946 0.74238627,6.8732747 -0.14905873,6.3891273 0.44081427,5.4356796 1.5568083,3.63183 2.3656613,4.6628251 2.9043693,6.3825271 c 0.394574,1.2595893 2.981604,2.0073851 7.075234,2.0073851 3.8563157,0 5.7340347,-1.9598313 7.0280347,-2.9428802 4.497055,-3.4164021 7.429624,-4.94727489 9.334525,-2.0016858 1.490049,2.3040953 0.56428,4.4968968 -2.337833,7.4372838 -2.595556,2.629789 -4.078914,3.434642 -4.078914,1.344017 0,-0.76507 0.698132,-1.144263 1.048719,-1.144263 1.201475,0 4.714464,-4.0550138 4.27553,-5.643652 C 24.262573,1.8661382 19.236567,4.9204566 13.773372,12.19186 7.9976253,19.879262 6.0982843,21.052595 2.9949853,18.850293 Z M 10.368768,13.681211 12.413389,10.55138 8.6742353,10.140092 c -5.191382,-0.5710258 -4.750289,1.12849 -5.322704,2.766416 -0.545912,1.562092 -0.571776,4.860679 1.779844,4.727111 1.948706,-0.110684 3.935414,-1.94033 5.2373927,-3.952408 z"
       id="path34062" />
    <circle
       style="fill:#000000;stroke-width:0.218352"
       id="path1452"
       cx="13.667678"
       cy="1.1050198"
       r="1" />
  </g>
</svg>
