<?xml version="1.0" encoding="UTF-8" standalone="no"?>
<!-- Created with Inkscape (http://www.inkscape.org/) -->

<svg
   width="210mm"
   height="297mm"
   viewBox="0 0 210 297"
   version="1.1"
   id="svg34026"
   xmlns="http://www.w3.org/2000/svg"
   xmlns:svg="http://www.w3.org/2000/svg">
  <defs
     id="defs34023" />
  <g
     id="layer1">
    <path
       style="fill:#000000;stroke-width:0.690976"
       d="M 2.9949853,17.262792 C 1.0104213,15.854417 0.49196527,13.196181 1.6528193,10.381224 2.5540373,8.1958581 3.2585643,7.8351371 1.8994463,6.4580945 0.74238627,5.2857746 -0.14905873,4.8016272 0.44081427,3.8481795 1.5568083,2.0443299 2.3656613,3.075325 2.9043693,4.795027 c 0.394574,1.2595893 2.981604,2.0073851 7.075234,2.0073851 3.8563157,0 5.7340347,-1.9598313 7.0280347,-2.9428802 4.497055,-3.41640204 7.429624,-4.9472748 9.334525,-2.0016858 1.490049,2.3040953 0.56428,4.4968968 -2.337833,7.437284 -2.595556,2.6297879 -4.078914,3.4346409 -4.078914,1.3440159 0,-0.7650699 0.698132,-1.1442629 1.048719,-1.1442629 1.201475,0 4.714464,-4.055013 4.27553,-5.6436512 C 24.262573,0.27863816 19.236567,3.3329565 13.773372,10.604359 7.9976253,18.291761 6.0982843,19.465094 2.9949853,17.262792 Z M 10.368768,12.09371 12.413389,8.9638801 8.6742353,8.5525921 c -5.191382,-0.571026 -4.750289,1.128489 -5.322704,2.7664149 -0.545912,1.562092 -0.571776,4.860679 1.779844,4.727111 1.948706,-0.110684 3.935414,-1.94033 5.2373927,-3.952408 z"
       id="path34062" />
    <circle
       style="fill:#000000;stroke-width:0.218352"
       id="path1452"
       cx="13.667678"
       cy="19.343456"
       r="1" />
  </g>
</svg>
