<?xml version="1.0" encoding="UTF-8" standalone="no"?>
<!-- Created with Inkscape (http://www.inkscape.org/) -->

<svg
   width="210mm"
   height="297mm"
   viewBox="0 0 210 297"
   version="1.1"
   id="svg36706"
   xmlns="http://www.w3.org/2000/svg"
   xmlns:svg="http://www.w3.org/2000/svg">
  <defs
     id="defs36703" />
  <g
     id="layer1">
    <path
       style="fill:#000000;stroke-width:0.755161"
       d="M 0.40836134,20.443389 C 0.22294734,16.334039 0.68574934,11.043199 1.3466573,9.7166123 4.5218563,3.343302 12.842889,1.6906816 18.34151,5.4661541 22.517669,8.3335952 24.173111,16.301534 22.617558,20.509823 21.673481,23.063866 21.154644,21.591652 21.413944,17.247415 21.751548,11.591302 20.194179,7.9245615 16.279004,5.9971556 15.043942,5.3891453 13.96514,4.7355279 13.039623,4.9013804 l -0.919588,1.1836155 -1.112109,1.8503528 c 0.03324,0.3720368 0.314,0.7363936 0.682067,1.2225149 0.561406,0.6900957 0.702574,1.2490764 1.355026,2.0553654 0.31722,0.269754 0.06064,1.055371 -0.24191,1.409698 -1.275746,1.494056 -1.595007,1.335807 -0.440057,2.706744 1.585675,1.882213 1.551513,3.510014 -0.107512,5.122859 -1.907469,1.854374 -2.4090497,1.601132 -1.424817,-0.719373 0.666644,-1.571732 0.649178,-2.367945 -0.07944,-3.621253 -0.7803817,-1.342346 -0.745417,-1.809095 0.212611,-2.838237 1.043044,-1.120469 1.006739,-1.391606 -0.402031,-3.002485 C 9.0905883,8.5888301 9.0737403,8.4012181 10.2245,6.5145691 c 1.083402,-1.776219 1.032024,-1.46204 0.0071,-1.46204 -1.8646288,0 -4.8529682,1.6949529 -6.5334922,3.9899805 -1.29081,1.7628094 -1.47788,2.9721884 -1.33682,7.1520144 0.112429,3.331408 -0.4712585,5.176429 -1.0330145,5.377581 -0.47033996,0.168416 -0.88429496,-0.339506 -0.91990396,-1.128716 z"
       id="path36722" />
    <circle
       style="fill:#000000;stroke-width:0.394414"
       id="path1701"
       cx="11.761063"
       cy="1.0985553"
       r="1" />
  </g>
</svg>
