<?xml version="1.0" encoding="UTF-8" standalone="no"?>
<!-- Created with Inkscape (http://www.inkscape.org/) -->

<svg
   width="210mm"
   height="297mm"
   viewBox="0 0 210 297"
   version="1.1"
   id="svg38872"
   xmlns="http://www.w3.org/2000/svg"
   xmlns:svg="http://www.w3.org/2000/svg">
  <defs
     id="defs38869" />
  <g
     id="layer1">
    <path
       style="fill:#000000;stroke-width:0.869952"
       d="m 23.599884,19.564599 c -1.075758,-1.12737 -0.56206,-4.535464 0.867281,-5.753913 1.240896,-1.057811 1.365817,-1.03166 0.928429,0.194358 -0.277964,0.779144 -0.7528,2.515934 -0.320236,3.206241 0.634553,1.012654 1.467737,0.314605 3.002128,-1.893241 1.655455,-2.382045 2.438329,-3.481735 2.564906,-7.6367118 0.132277,-4.342062 -0.965224,-4.591887 -2.521546,-4.824621 -1.305937,-0.19529 -1.902959,0.5058885 -3.202673,2.8144275 -2.08824,3.709106 -3.9438,4.9525333 -5.759089,3.373699 -1.075266,-0.935205 -1.676767,-1.2356005 -3.592259,0.6788205 -1.268432,1.2677228 -4.087878,3.1023518 -6.2654366,4.0769548 -2.369474,1.060498 -4.189832,2.533535 -4.533591,3.66859 -0.564239,1.863047 -2.180899,2.083111 -2.725475,0.371 -0.57027,-1.792888 2.610046,-3.491833 5.885143,-5.304219 3.9191226,-2.168778 5.6243946,-2.248734 5.6243946,-4.4228558 0,-2.947172 -1.432609,-2.990586 -5.2433746,-1.421858 -3.251019,1.338305 -3.268831,1.135341 -5.26386,-0.234572 -2.480162,-1.703029 -3.465017,-2.558547 -1.681315,-4.109909 1.036721,-0.9016813 1.274708,-0.8592643 1.274708,0.227196 0,0.734725 0.604275,1.861429 1.342834,2.503785 1.330101,1.156847 1.768414,1.07582 7.2808876,-1.345948 0.899899,-0.395349 2.418085,-0.192514 3.112729,1.310955 1.067991,2.311531 2.070308,2.011059 3.352376,1.202604 0.929001,-0.585816 1.461123,-0.274567 1.706838,0.227019 1.135838,2.318624 2.750603,0.715717 4.074711,-2.19418 2.35118,-5.16702508 7.038519,-4.7610105 8.960321,0.536219 1.248302,3.440804 -0.721955,9.6177428 -4.042264,12.6728788 -2.978346,2.740482 -3.839901,3.111282 -4.826567,2.077278 z"
       id="path39568" />
    <circle
       style="fill:#000000;stroke-width:0.2316"
       id="path2052"
       cx="16.603731"
       cy="21.203337"
       r="1" />
  </g>
</svg>
