<?xml version="1.0" encoding="UTF-8" standalone="no"?>
<!-- Created with Inkscape (http://www.inkscape.org/) -->

<svg
   width="210mm"
   height="297mm"
   viewBox="0 0 210 297"
   version="1.1"
   id="svg36706"
   xmlns="http://www.w3.org/2000/svg"
   xmlns:svg="http://www.w3.org/2000/svg">
  <defs
     id="defs36703" />
  <g
     id="layer1">
    <path
       style="fill:#000000;stroke-width:0.755161"
       d="M 0.40836134,17.268387 C 0.22294734,13.159037 0.68574934,7.8681983 1.3466573,6.5416123 4.5218563,0.16830187 12.842889,-1.4843184 18.34151,2.2911539 22.517669,5.158595 24.173111,13.126532 22.617558,17.334821 21.673481,19.888864 21.154644,18.41665 21.413944,14.072413 21.751548,8.4163013 20.194179,4.7495613 16.279004,2.8221554 15.043942,2.2141451 13.96514,1.5605277 13.039623,1.7263802 l -0.919588,1.1836155 -1.112109,1.8503528 c 0.03324,0.3720368 0.314,0.7363936 0.682067,1.2225148 0.561406,0.690096 0.702574,1.249077 1.355026,2.055365 0.31722,0.269754 0.06064,1.05537 -0.24191,1.409697 -1.275746,1.4940557 -1.595007,1.3358067 -0.440057,2.7067437 1.585675,1.882213 1.551513,3.510014 -0.107512,5.122859 -1.907469,1.854374 -2.4090497,1.601132 -1.424817,-0.719373 0.666644,-1.571732 0.649178,-2.367945 -0.07944,-3.621253 C 9.9709013,11.594556 10.005866,11.127807 10.963894,10.098665 12.006938,8.9781963 11.970633,8.7070603 10.561863,7.0961823 9.0905883,5.4138299 9.0737403,5.2262179 10.2245,3.3395689 c 1.083402,-1.776219 1.032024,-1.46204 0.0071,-1.46204 -1.8646288,0 -4.8529682,1.6949529 -6.5334922,3.9899803 -1.29081,1.762809 -1.47788,2.9721881 -1.33682,7.1520128 0.112429,3.331408 -0.4712585,5.176429 -1.0330145,5.377581 -0.47033996,0.168416 -0.88429496,-0.339506 -0.91990396,-1.128716 z"
       id="path36722" />
    <circle
       style="fill:#000000;stroke-width:0.394414"
       id="path1701"
       cx="11.761063"
       cy="21.143064"
       r="1" />
  </g>
</svg>
