<?xml version="1.0" encoding="UTF-8" standalone="no"?>
<!-- Created with Inkscape (http://www.inkscape.org/) -->

<svg
   width="210mm"
   height="297mm"
   viewBox="0 0 210 297"
   version="1.1"
   id="svg5874"
   xmlns="http://www.w3.org/2000/svg"
   xmlns:svg="http://www.w3.org/2000/svg">
  <defs
     id="defs5871" />
  <g
     id="layer1">
    <path
       style="fill:#000000;stroke-width:0.670323"
       d="m 3.4449428,16.417589 c -2.362414,-1.181206 -3.01563004,-3.52278 -1.401229,-3.52278 0.509524,0 1.374465,0.633733 1.552512,1.315901 0.883895,3.386548 6.22687,1.047225 6.22687,-2.693756 0,-1.5314118 -1.047381,-2.3461018 -2.385588,-2.6826188 -1.560832,-0.392501 -0.710398,-0.223516 0.237471,-1.272916 1.297426,-1.4364092 1.344945,-3.9833458 0.08337,-4.4683931 -0.523702,-0.2013514 -1.805227,-0.030284 -2.570652,0.3801502 -0.765425,0.410434 -1.391682,0.4821495 -1.391682,0.1593676 0,-0.6827048 2.669999,-2.4465975 4.058463,-2.4465975 1.591184,0 3.4319632,2.9007427 2.5458072,4.8493986 -0.6405092,1.4084802 -1.2618832,1.7048952 -0.348599,2.7160112 1.754121,1.9420258 2.137285,4.7694088 -0.1936892,6.7345818 -2.472356,2.084368 -4.067396,2.104476 -6.110667,1.082841 z"
       id="path5928" />
  </g>
</svg>
