<?xml version="1.0" encoding="UTF-8" standalone="no"?>
<!-- Created with Inkscape (http://www.inkscape.org/) -->

<svg
   width="210mm"
   height="297mm"
   viewBox="0 0 210 297"
   version="1.1"
   id="svg41813"
   xmlns="http://www.w3.org/2000/svg"
   xmlns:svg="http://www.w3.org/2000/svg">
  <defs
     id="defs41810" />
  <g
     id="layer1">
    <path
       style="fill:#000000;stroke-width:0.793449"
       d="m 1.9691085,19.899168 c -1.54955805,-1.621704 -1.54717405,-4.326385 0.0074,-8.392534 1.174407,-3.0717898 1.154171,-3.3091998 -0.479143,-5.6212333 -2.33259205,-3.301934 -1.18016605,-5.17199802 1.261812,-2.0475212 1.925258,2.4633411 2.191111,4.1212577 1.712015,5.5670287 -0.403614,1.2179878 -2.025453,6.0942028 -1.276677,8.1390708 1.000191,2.731468 4.368464,0.03298 10.1231415,-5.687913 5.916022,-5.8812914 8.65273,-6.3124392 11.181372,-5.4725127 2.956183,0.9819406 3.997893,6.9033607 1.36344,9.1915607 -1.380117,1.198724 -2.463607,0.241231 -1.210752,-1.069957 1.994598,-2.087465 0.40122,-6.4227188 -2.326209,-6.4227188 -1.239385,0 -6.772585,3.5018058 -6.81052,4.5053988 -0.01554,0.411288 0.551294,1.418019 1.259644,2.237181 0.708351,0.819161 1.0335,1.75564 0.722554,2.081063 -0.310946,0.325424 -1.220941,-0.316038 -2.022211,-1.425469 l -1.456854,-2.01715 -2.949795,2.947944 c -4.7805235,4.777525 -7.0394615,5.643387 -9.0991855,3.487762 z"
       id="path41829" />
    <circle
       style="fill:#000000;stroke-width:0.138429"
       id="path2301"
       cx="13.899203"
       cy="1.1435984"
       r="1" />
  </g>
</svg>
