<?xml version="1.0" encoding="UTF-8" standalone="no"?>
<!-- Created with Inkscape (http://www.inkscape.org/) -->

<svg
   width="210mm"
   height="297mm"
   viewBox="0 0 210 297"
   version="1.1"
   id="svg44169"
   xmlns="http://www.w3.org/2000/svg"
   xmlns:svg="http://www.w3.org/2000/svg">
  <defs
     id="defs44166" />
  <g
     id="layer1">
    <path
       style="fill:#000000;stroke-width:0.978668"
       d="m 21.182714,26.487897 c -0.04043,-0.806967 0.696326,-0.483031 1.192939,-0.483031 0.496614,0 2.4438,-0.06564 4.54988,-0.563438 8.78758,-2.07704 7.13084,-7.472362 1.111,-8.81758 -1.74756,-0.390518 -1.53391,-2.374995 0.55505,-4.033476 2.46,-1.953065 4.65005,-4.9219058 2.89464,-6.6035008 -1.73766,-1.664581 -4.3741,-2.073522 -6.11532,-1.193603 C 24.153323,5.4085712 24.539093,7.3164412 20.176408,17.65 15.83702,27.928372 14.11859,29.120736 11.494225,27.287546 10.743215,26.762945 7.6879707,21.869524 5.7933247,16.559662 3.4267477,9.9271813 3.0171477,5.2707852 1.9447627,5.2707852 c -0.99615803,0 -2.11609703,-0.183275 -1.91406503,-1.249884 0.236854,-1.2504491 -0.437521,-1.1446511 1.60479003,-1.2484681 3.578963,-0.181929 5.990578,11.2147539 6.737214,13.1608699 1.552223,4.045889 2.9295843,8.843011 4.5122613,8.862065 1.711296,0.0206 5.692281,-7.977663 6.91776,-10.989973 1.732224,-4.2579227 1.937225,-7.4335528 2.051068,-7.7750828 0.348634,-1.045903 -0.6253,-2.229984 0.850306,-2.818607 3.453996,-0.6528511 5.173536,-0.4033881 7.469146,-0.2404811 3.47633,1.1560721 5.68784,5.0884131 2.87998,7.8905189 -3.95499,3.946878 -5.43139,3.532794 1.48632,7.252685 3.986,2.143413 -2.63824,7.236442 -4.57122,8.201408 -5.46813,2.729753 -8.676391,2.351984 -8.785609,0.172061 z"
       id="path44305" />
    <circle
       style="fill:#000000;stroke-width:0.195019"
       id="path2647"
       cx="17.922054"
       cy="1.2777305"
       r="1.05" />
  </g>
</svg>
