<?xml version="1.0" encoding="UTF-8" standalone="no"?>
<!-- Created with Inkscape (http://www.inkscape.org/) -->

<svg
   width="210mm"
   height="297mm"
   viewBox="0 0 210 297"
   version="1.1"
   id="svg52795"
   xmlns="http://www.w3.org/2000/svg"
   xmlns:svg="http://www.w3.org/2000/svg">
  <defs
     id="defs52792" />
  <g
     id="layer1">
    <path
       style="fill:#000000;stroke-width:0.931946"
       d="m 3.2419666,20.926949 c -0.90647,-2.419217 -0.43973,-3.418032 0.47285,-5.863586 1.720666,-4.611081 1.81613,-4.530024 -0.495288,-4.175053 C 0.54001165,11.299811 -0.45687235,8.2059582 0.74946065,6.3275412 1.8064296,4.6817042 3.3712446,4.0459202 2.4975916,6.1972402 c -1.57140095,3.8694848 1.510153,4.1329918 8.2620954,-0.321814 6.869764,-4.532543 9.26597,-5.70182494 12.429822,-5.70182494 2.516406,0 5.538787,2.50329394 5.538787,4.58751394 0,1.495095 -3.683334,4.9901861 -5.258952,4.9901861 -0.822176,0 -0.513646,-0.6726417 0.851104,-1.8555361 1.757859,-1.523621 2.532404,-2.417069 1.847804,-3.926043 -2.359994,-5.201826 -16.2493284,2.076495 -20.0202204,10.0214158 -2.057555,4.335079 -1.372258,5.746325 -0.0014,6.933115 1.996404,1.728342 0.543556,2.212924 -0.603863,2.235826 -0.694061,0.01385 -1.747442,-0.756186 -2.300846,-2.23313 z"
       id="path52811" />
    <rect
       style="fill:#000000;stroke-width:0.264583"
       id="rect51"
       width="1.7"
       height="4.6999998"
       x="13.608243"
       y="23.131733" />
    <rect
       style="fill:#000000;stroke-width:0.264583"
       id="rect53"
       width="4.6999998"
       height="1.7"
       x="12.096337"
       y="24.643639" />
  </g>
</svg>
