<?xml version="1.0" encoding="UTF-8" standalone="no"?>
<!-- Created with Inkscape (http://www.inkscape.org/) -->

<svg
   width="210mm"
   height="297mm"
   viewBox="0 0 210 297"
   version="1.1"
   id="svg52795"
   xmlns="http://www.w3.org/2000/svg"
   xmlns:svg="http://www.w3.org/2000/svg">
  <defs
     id="defs52792" />
  <g
     id="layer1">
    <path
       style="fill:#000000;stroke-width:0.931946"
       d="m 3.2419666,23.043617 c -0.90647,-2.419217 -0.43973,-3.418032 0.47285,-5.863586 1.720666,-4.611081 1.81613,-4.530024 -0.495288,-4.175053 C 0.54001165,13.416479 -0.45687235,10.322625 0.74946065,8.444208 1.8064296,6.798371 3.3712446,6.162587 2.4975916,8.313907 0.92619065,12.183393 4.0077446,12.4469 10.759687,7.992093 17.629451,3.45955 20.025657,2.290268 23.189509,2.290268 c 2.516406,0 5.538787,2.503294 5.538787,4.587514 0,1.495095 -3.683334,4.990187 -5.258952,4.990187 -0.822176,0 -0.513646,-0.672642 0.851104,-1.855537 C 26.078307,8.488811 26.852852,7.595363 26.168252,6.086389 23.808258,0.88456288 9.9189236,8.162884 6.1480316,16.107806 c -2.057555,4.335079 -1.372258,5.746325 -0.0014,6.933115 1.996404,1.728342 0.543556,2.212924 -0.603863,2.235826 -0.694061,0.01385 -1.747442,-0.756186 -2.300846,-2.23313 z"
       id="path52811" />
    <circle
       style="fill:#000000;stroke-width:0.33737"
       id="path2896"
       cx="14.443119"
       cy="1.058201"
       r="1" />
  </g>
</svg>
