<?xml version="1.0" encoding="UTF-8" standalone="no"?>
<!-- Created with Inkscape (http://www.inkscape.org/) -->

<svg
   width="210mm"
   height="297mm"
   viewBox="0 0 210 297"
   version="1.1"
   id="svg56063"
   xmlns="http://www.w3.org/2000/svg"
   xmlns:svg="http://www.w3.org/2000/svg">
  <defs
     id="defs56060" />
  <g
     id="layer1">
    <path
       style="fill:#000000;stroke-width:1.00967"
       d="m 3.5736316,21.857587 c -2.428012,-0.872706 -4.22008104,-4.837915 -2.99509904,-6.627082 0.379824,-0.554756 1.55370904,-1.425619 2.60863704,-1.935254 1.696123,-0.819395 -1.7411178,0.724003 -0.7321723,3.707358 0.9274593,2.742408 3.1287872,3.63573 5.383185,3.315959 C 14.723564,19.341925 15.712787,13.036034 15.810175,11.673592 15.861145,10.960484 15.23938,5.2816232 12.220316,3.5411801 8.7609043,1.5468833 6.7722246,1.3841223 4.7724956,4.1390721 2.3319346,7.501338 0.75108156,7.139648 2.7368436,3.6733281 6.0169996,-2.052473 13.532942,-0.63001118 16.752679,6.3259551 c 2.02441,4.3735639 1.34371,9.4698129 -2.932021,13.0841339 -3.56207,3.011055 -7.1000474,3.578625 -10.2470294,2.447498 z"
       id="path56079" />
    <rect
       style="fill:#000000;stroke-width:0.264583"
       id="rect51"
       width="1.7"
       height="4.6999998"
       x="8.0648022"
       y="24.02746" />
    <rect
       style="fill:#000000;stroke-width:0.264583"
       id="rect53"
       width="4.6999998"
       height="1.7"
       x="6.552896"
       y="25.539366" />
  </g>
</svg>
