<?xml version="1.0" encoding="UTF-8" standalone="no"?>
<!-- Created with Inkscape (http://www.inkscape.org/) -->

<svg
   width="210mm"
   height="297mm"
   viewBox="0 0 210 297"
   version="1.1"
   id="svg56063"
   xmlns="http://www.w3.org/2000/svg"
   xmlns:svg="http://www.w3.org/2000/svg">
  <defs
     id="defs56060" />
  <g
     id="layer1">
    <path
       style="fill:#000000;stroke-width:1.00967"
       d="M 3.5736316,25.408258 C 1.1456196,24.535552 -0.64644944,20.570343 0.57853256,18.781176 0.95835656,18.22642 2.1322416,17.355557 3.1871696,16.845922 4.8832926,16.026527 1.4460518,17.569925 2.4549973,20.55328 3.3824566,23.295688 5.5837845,24.18901 7.8381823,23.869239 14.723564,22.892596 15.712787,16.586705 15.810175,15.224263 15.861145,14.511155 15.23938,8.8322919 12.220316,7.0918488 8.7609043,5.097552 6.7722246,4.934791 4.7724956,7.6897408 2.3319346,11.052007 0.75108156,10.690317 2.7368436,7.2239968 6.0169996,1.4981955 13.532942,2.9206574 16.752679,9.8766238 c 2.02441,4.3735662 1.34371,9.4698152 -2.932021,13.0841362 -3.56207,3.011055 -7.1000474,3.578625 -10.2470294,2.447498 z"
       id="path56079" />
    <circle
       style="fill:#000000;stroke-width:0.234564"
       id="path3242"
       cx="8.9819059"
       cy="1.0403153"
       r="1" />
  </g>
</svg>
