<?xml version="1.0" encoding="UTF-8" standalone="no"?>
<!-- Created with Inkscape (http://www.inkscape.org/) -->

<svg
   width="210mm"
   height="297mm"
   viewBox="0 0 210 297"
   version="1.1"
   id="svg56063"
   xmlns="http://www.w3.org/2000/svg"
   xmlns:svg="http://www.w3.org/2000/svg">
  <defs
     id="defs56060" />
  <g
     id="layer1">
    <path
       style="fill:#000000;stroke-width:1.00967"
       d="m 3.5736316,22.003009 c -2.428012,-0.872706 -4.22008104,-4.837915 -2.99509904,-6.627082 0.379824,-0.554756 1.55370904,-1.425619 2.60863704,-1.935254 1.696123,-0.819395 -1.7411178,0.724003 -0.7321723,3.707358 0.9274593,2.742408 3.1287872,3.63573 5.383185,3.315959 C 14.723564,19.487347 15.712787,13.181456 15.810175,11.819014 15.861145,11.105906 15.23938,5.4270444 12.220316,3.6866013 8.7609043,1.6923045 6.7722246,1.5295435 4.7724956,4.2844933 c -2.440561,3.362266 -4.02141404,3.000577 -2.035652,-0.465744 3.280156,-5.7258011 10.7960984,-4.30333929 14.0158354,2.652627 2.02441,4.3735647 1.34371,9.4698137 -2.932021,13.0841347 -3.56207,3.011055 -7.1000474,3.578625 -10.2470294,2.447498 z"
       id="path56079" />
    <circle
       style="fill:#000000;stroke-width:0.234564"
       id="path3242"
       cx="8.9819059"
       cy="25.228487"
       r="1" />
  </g>
</svg>
