<?xml version="1.0" encoding="UTF-8" standalone="no"?>
<!-- Created with Inkscape (http://www.inkscape.org/) -->

<svg
   width="210mm"
   height="297mm"
   viewBox="0 0 210 297"
   version="1.1"
   id="svg57834"
   xmlns="http://www.w3.org/2000/svg"
   xmlns:svg="http://www.w3.org/2000/svg">
  <defs
     id="defs57831" />
  <g
     id="layer1">
    <path
       style="fill:#000000;stroke-width:0.78371"
       d="m 2.7414726,16.907734 c -2.96231297,-1.868579 -3.42177897,-6.646895 -0.985393,-9.5729309 1.950892,-2.342971 1.976678,-2.719966 0.305371,-4.464587 -2.86282597,-2.98840751 -0.835125,-3.9183284 2.236902,-1.0464715 2.241135,2.0951055 3.328551,2.4449385 0.810761,4.2987615 -3.842467,2.8291695 -4.81310797,8.7906789 0.821086,9.4404579 2.352766,0.271339 6.8432314,-4.310815 10.3684064,-7.6080978 6.858823,-6.4154228 6.973361,-6.3552984 9.80012,-6.4800028 2.575827,-0.1136343 6.173152,2.6241497 6.173152,5.0629417 0,5.2173579 -7.221028,8.0281169 -11.505344,3.9689409 L 18.726008,8.5734489 C 18.1288,8.5700489 15.361703,11.428901 14.018069,12.704202 9.3164526,17.166707 5.2575216,18.494816 2.7414726,16.907734 Z M 29.837675,8.8912709 c 1.349759,-1.5881688 1.312163,-2.7360188 -0.559862,-4.1259668 -2.948769,-2.18941 -4.461572,-2.148851 -6.686178,0.189343 -2.008995,2.111573 -2.861874,3.1837941 -0.437942,4.6940062 2.340528,1.4582447 4.616442,1.5746037 6.609784,0.316814 0.801949,-0.5060267 0.791131,-0.7411307 1.074198,-1.0741964 z"
       id="path57870" />
    <rect
       style="fill:#000000;stroke-width:0.264583"
       id="rect51"
       width="1.7"
       height="4.6999998"
       x="15.274853"
       y="17.630051" />
    <rect
       style="fill:#000000;stroke-width:0.264583"
       id="rect53"
       width="4.6999998"
       height="1.7"
       x="13.762947"
       y="19.141956" />
  </g>
</svg>
