<?xml version="1.0" encoding="UTF-8" standalone="no"?>
<!-- Created with Inkscape (http://www.inkscape.org/) -->

<svg
   width="210mm"
   height="297mm"
   viewBox="0 0 210 297"
   version="1.1"
   id="svg57834"
   xmlns="http://www.w3.org/2000/svg"
   xmlns:svg="http://www.w3.org/2000/svg">
  <defs
     id="defs57831" />
  <g
     id="layer1">
    <path
       style="fill:#000000;stroke-width:0.78371"
       d="m 2.7414726,16.907734 c -2.96231297,-1.868579 -3.42177897,-6.646895 -0.985393,-9.5729309 1.950892,-2.342971 1.976678,-2.719966 0.305371,-4.464587 -2.86282597,-2.98840753 -0.835125,-3.9183284 2.236902,-1.0464715 2.241135,2.0951055 3.328551,2.4449385 0.810761,4.2987615 -3.842467,2.82917 -4.81310797,8.7906789 0.821086,9.4404579 2.352766,0.271339 6.8432314,-4.310815 10.3684064,-7.6080979 6.858823,-6.4154227 6.973361,-6.3552983 9.80012,-6.4800027 2.575827,-0.1136343 6.173152,2.6241497 6.173152,5.0629417 0,5.2173579 -7.221028,8.0281169 -11.505344,3.9689409 L 18.726008,8.5734491 C 18.1288,8.5700491 15.361703,11.428901 14.018069,12.704202 9.3164526,17.166707 5.2575216,18.494816 2.7414726,16.907734 Z M 29.837675,8.8912711 c 1.349759,-1.588169 1.312163,-2.736019 -0.559862,-4.125967 -2.948769,-2.18941 -4.461572,-2.148851 -6.686178,0.189343 -2.008995,2.111573 -2.861874,3.183794 -0.437942,4.694006 2.340528,1.4582449 4.616442,1.5746039 6.609784,0.316814 0.801949,-0.506026 0.791131,-0.74113 1.074198,-1.074196 z"
       id="path57870" />
    <circle
       style="fill:#000000;stroke-width:0.746426"
       id="path3640"
       cx="16.181974"
       cy="18.616821"
       r="1" />
  </g>
</svg>
